<svg width="361" height="103" viewBox="0 0 361 103" fill="none" xmlns="http://www.w3.org/2000/svg">
<rect x="3" y="17" width="176" height="81" fill="#F9F1B0"/>
<path d="M20.8699 90L5.9099 28.576H13.7419L20.3419 58.144L25.4459 81.112H25.6219L31.3419 58.144L39.0859 28.576H47.5339L55.0139 58.144L60.7339 81.024H60.9979L66.2779 58.144L73.2299 28.576H80.7979L65.0459 90H56.8619L48.8539 59.376L43.2219 36.848H43.0459L37.2379 59.376L29.0539 90H20.8699ZM105.788 91.056C102.679 91.056 99.8625 90.4987 97.3398 89.384C94.8758 88.2693 92.7345 86.6853 90.9158 84.632C89.1558 82.52 87.7772 80.0267 86.7798 77.152C85.8412 74.2187 85.3718 70.9333 85.3718 67.296C85.3718 63.7173 85.8412 60.4613 86.7798 57.528C87.7772 54.5947 89.1558 52.1013 90.9158 50.048C92.7345 47.936 94.8758 46.3227 97.3398 45.208C99.8625 44.0933 102.679 43.536 105.788 43.536C108.839 43.536 111.567 44.0933 113.972 45.208C116.377 46.3227 118.431 47.8773 120.132 49.872C121.833 51.808 123.124 54.1253 124.004 56.824C124.943 59.5227 125.412 62.4853 125.412 65.712V69.056H92.7638V71.168C92.7638 73.104 93.0572 74.9227 93.6438 76.624C94.2892 78.2667 95.1692 79.704 96.2838 80.936C97.4572 82.168 98.8652 83.136 100.508 83.84C102.209 84.544 104.116 84.896 106.228 84.896C109.103 84.896 111.596 84.2213 113.708 82.872C115.879 81.5227 117.551 79.5867 118.724 77.064L123.74 80.672C122.273 83.7813 119.985 86.304 116.876 88.24C113.767 90.1173 110.071 91.056 105.788 91.056ZM105.788 49.432C103.852 49.432 102.092 49.784 100.508 50.488C98.9238 51.1333 97.5452 52.072 96.3718 53.304C95.2572 54.536 94.3772 56.0027 93.7318 57.704C93.0865 59.3467 92.7638 61.1653 92.7638 63.16V63.776H117.844V62.808C117.844 58.76 116.729 55.5333 114.5 53.128C112.329 50.664 109.425 49.432 105.788 49.432ZM144.493 90C142.029 90 140.151 89.3253 138.861 87.976C137.629 86.568 137.013 84.808 137.013 82.696V24.88H144.053V83.84H150.741V90H144.493ZM168.04 90C165.576 90 163.698 89.3253 162.408 87.976C161.176 86.568 160.56 84.808 160.56 82.696V24.88H167.6V83.84H174.288V90H168.04ZM184.536 90V44.592H191.576V51.984H191.928C193.043 49.4027 194.597 47.3493 196.592 45.824C198.645 44.2987 201.373 43.536 204.776 43.536C209.469 43.536 213.165 45.0613 215.864 48.112C218.621 51.104 220 55.3573 220 60.872V90H212.96V62.104C212.96 53.9493 209.528 49.872 202.664 49.872C201.256 49.872 199.877 50.048 198.528 50.4C197.237 50.752 196.064 51.28 195.008 51.984C193.952 52.688 193.101 53.5973 192.456 54.712C191.869 55.768 191.576 57.0293 191.576 58.496V90H184.536ZM251.624 91.056C248.514 91.056 245.698 90.4987 243.176 89.384C240.712 88.2693 238.57 86.6853 236.752 84.632C234.992 82.52 233.613 80.0267 232.616 77.152C231.677 74.2187 231.208 70.9333 231.208 67.296C231.208 63.7173 231.677 60.4613 232.616 57.528C233.613 54.5947 234.992 52.1013 236.752 50.048C238.57 47.936 240.712 46.3227 243.176 45.208C245.698 44.0933 248.514 43.536 251.624 43.536C254.674 43.536 257.402 44.0933 259.808 45.208C262.213 46.3227 264.266 47.8773 265.968 49.872C267.669 51.808 268.96 54.1253 269.84 56.824C270.778 59.5227 271.248 62.4853 271.248 65.712V69.056H238.6V71.168C238.6 73.104 238.893 74.9227 239.48 76.624C240.125 78.2667 241.005 79.704 242.12 80.936C243.293 82.168 244.701 83.136 246.344 83.84C248.045 84.544 249.952 84.896 252.064 84.896C254.938 84.896 257.432 84.2213 259.544 82.872C261.714 81.5227 263.386 79.5867 264.56 77.064L269.576 80.672C268.109 83.7813 265.821 86.304 262.712 88.24C259.602 90.1173 255.906 91.056 251.624 91.056ZM251.624 49.432C249.688 49.432 247.928 49.784 246.344 50.488C244.76 51.1333 243.381 52.072 242.208 53.304C241.093 54.536 240.213 56.0027 239.568 57.704C238.922 59.3467 238.6 61.1653 238.6 63.16V63.776H263.68V62.808C263.68 58.76 262.565 55.5333 260.336 53.128C258.165 50.664 255.261 49.432 251.624 49.432ZM296.489 91.056C292.265 91.056 288.715 90.264 285.841 88.68C283.025 87.0373 280.59 84.8667 278.537 82.168L283.553 78.12C285.313 80.3493 287.278 82.08 289.449 83.312C291.619 84.4853 294.142 85.072 297.017 85.072C300.009 85.072 302.326 84.4267 303.969 83.136C305.67 81.8453 306.521 80.0267 306.521 77.68C306.521 75.92 305.934 74.424 304.761 73.192C303.646 71.9013 301.593 71.0213 298.601 70.552L294.993 70.024C292.881 69.7307 290.945 69.2907 289.185 68.704C287.425 68.0587 285.87 67.2373 284.521 66.24C283.23 65.184 282.203 63.8933 281.441 62.368C280.737 60.8427 280.385 59.024 280.385 56.912C280.385 54.6827 280.795 52.7467 281.617 51.104C282.438 49.4027 283.553 47.9947 284.961 46.88C286.427 45.7653 288.158 44.944 290.153 44.416C292.147 43.8293 294.289 43.536 296.577 43.536C300.273 43.536 303.353 44.1813 305.817 45.472C308.339 46.7627 310.539 48.552 312.417 50.84L307.753 55.064C306.755 53.656 305.289 52.3947 303.353 51.28C301.417 50.1067 298.982 49.52 296.049 49.52C293.115 49.52 290.886 50.1653 289.361 51.456C287.894 52.688 287.161 54.3893 287.161 56.56C287.161 58.7893 287.894 60.4027 289.361 61.4C290.886 62.3973 293.057 63.1307 295.873 63.6L299.393 64.128C304.438 64.8907 308.017 66.3573 310.129 68.528C312.241 70.64 313.297 73.4267 313.297 76.888C313.297 81.288 311.801 84.7493 308.809 87.272C305.817 89.7947 301.71 91.056 296.489 91.056ZM338.856 91.056C334.632 91.056 331.083 90.264 328.208 88.68C325.392 87.0373 322.957 84.8667 320.904 82.168L325.92 78.12C327.68 80.3493 329.645 82.08 331.816 83.312C333.987 84.4853 336.509 85.072 339.384 85.072C342.376 85.072 344.693 84.4267 346.336 83.136C348.037 81.8453 348.888 80.0267 348.888 77.68C348.888 75.92 348.301 74.424 347.128 73.192C346.013 71.9013 343.96 71.0213 340.968 70.552L337.36 70.024C335.248 69.7307 333.312 69.2907 331.552 68.704C329.792 68.0587 328.237 67.2373 326.888 66.24C325.597 65.184 324.571 63.8933 323.808 62.368C323.104 60.8427 322.752 59.024 322.752 56.912C322.752 54.6827 323.163 52.7467 323.984 51.104C324.805 49.4027 325.92 47.9947 327.328 46.88C328.795 45.7653 330.525 44.944 332.52 44.416C334.515 43.8293 336.656 43.536 338.944 43.536C342.64 43.536 345.72 44.1813 348.184 45.472C350.707 46.7627 352.907 48.552 354.784 50.84L350.12 55.064C349.123 53.656 347.656 52.3947 345.72 51.28C343.784 50.1067 341.349 49.52 338.416 49.52C335.483 49.52 333.253 50.1653 331.728 51.456C330.261 52.688 329.528 54.3893 329.528 56.56C329.528 58.7893 330.261 60.4027 331.728 61.4C333.253 62.3973 335.424 63.1307 338.24 63.6L341.76 64.128C346.805 64.8907 350.384 66.3573 352.496 68.528C354.608 70.64 355.664 73.4267 355.664 76.888C355.664 81.288 354.168 84.7493 351.176 87.272C348.184 89.7947 344.077 91.056 338.856 91.056Z" fill="#1E1E1E"/>
</svg>
